<?xml version="1.0" encoding="utf-8"?>
<!-- Generator: Adobe Illustrator 25.0.0, SVG Export Plug-In . SVG Version: 6.00 Build 0)  -->
<svg version="1.1" id="Layer_1" xmlns="http://www.w3.org/2000/svg" xmlns:xlink="http://www.w3.org/1999/xlink" x="0px" y="0px"
	 viewBox="0 0 512 512" style="enable-background:new 0 0 512 512;" xml:space="preserve">
<style type="text/css">
	.st0{fill:#FF9700;}
</style>
<g>
	<path class="st0" d="M83.7,208.9c4.9,4.6,15.5,5.6,21.3-1.2l37.5-42.8c5.5-6.2,4.8-15.7-1.4-21.1c-6.2-5.4-15.7-4.8-21.2,1.4
		l-27.5,31.4l-7.4-6.7c-6.1-5.5-15.6-5.1-21.2,1.1c-5.6,6.1-5.1,15.6,1.1,21.1L83.7,208.9z"/>
	<path class="st0" d="M268.1,182.2h-86.5c-8.3,0-15,6.7-15,15c0,8.3,6.7,15,15,15h86.5c8.3,0,15-6.7,15-15
		C283.1,188.9,276.4,182.2,268.1,182.2z"/>
	<path class="st0" d="M268.1,244.3H73.9c-8.3,0-15,6.7-15,15c0,8.3,6.7,15,15,15h194.3c8.3,0,15-6.7,15-15
		C283.1,251,276.4,244.3,268.1,244.3L268.1,244.3z"/>
	<path class="st0" d="M83.7,380.5c4.9,4.6,15.5,5.6,21.3-1.2l37.5-42.8c5.5-6.2,4.8-15.7-1.4-21.1c-6.2-5.4-15.7-4.8-21.2,1.4
		l-27.5,31.4l-7.4-6.7c-6.1-5.5-15.6-5.1-21.2,1.1c-5.6,6.1-5.1,15.6,1.1,21.1L83.7,380.5z"/>
	<path class="st0" d="M268.1,353.8h-86.5c-8.3,0-15,6.7-15,15s6.7,15,15,15h86.5c8.3,0,15-6.7,15-15S276.4,353.8,268.1,353.8z"/>
	<path class="st0" d="M268.1,415H73.9c-8.3,0-15,6.7-15,15c0,8.3,6.7,15,15,15h194.3c8.3,0,15-6.7,15-15
		C283.1,421.7,276.4,415,268.1,415z"/>
	<path class="st0" d="M475.2,0H189.8c-2.7,0-6,0.5-9.2,1.8c-3-0.6-6.1-0.9-9.3-0.9c-12.9,0-25,5-34.2,14c-5.5,5.4-9.6,12-12,19.1
		h-16c-11.3,0-20.6,8.8-21.3,19.9H34.9c-19.1,0-34.6,15.5-34.6,34.6v388.9c0,19.1,15.5,34.6,34.6,34.6h272.8
		c16,0,29.5-10.9,33.4-25.6h136.5c18-1.1,34.4-17.4,34-36.5V36.5C511.7,16.4,495.3,0,475.2,0L475.2,0z M117.7,63.9h19.9
		c8.2,0,14.8-6.5,15-14.7c0.2-10.1,8.6-18.4,18.8-18.4c10.2,0,18.6,8.3,18.8,18.4c0.2,8.2,6.8,14.7,15,14.7H225v16.5H117.7V63.9z
		 M312.4,477.4c0,2.6-2.1,4.7-4.7,4.7H34.9c-2.6,0-4.7-2.1-4.7-4.7V88.5c0-2.6,2.1-4.7,4.7-4.7h52.8v3.2c0,12.9,10.5,23.3,23.3,23.3
		h120.6c12.9,0,23.3-10.5,23.3-23.3v-3.2h52.8c2.6,0,4.7,2.1,4.7,4.7L312.4,477.4z M481.8,449.9c0,3.3-2.5,6.1-5.8,6.5
		c-0.1,0-0.3,0-0.4,0.1H342.4V88.5c0-19.1-15.5-34.6-34.6-34.6h-52.9C254,42.8,244.7,34,233.4,34h-15.8c-0.5-1.4-1-2.7-1.6-4h259.3
		c3.6,0,6.6,3,6.6,6.6V449.9z"/>
</g>
</svg>
